
<svg width="94px" height="135px" viewBox="117 0 94 135" version="1.1" xmlns="http://www.w3.org/2000/svg" xmlns:xlink="http://www.w3.org/1999/xlink">
    <!-- Generator: Sketch 41.2 (35397) - http://www.bohemiancoding.com/sketch -->
    <desc>Created with Sketch.</desc>
    <defs>
        <polygon id="path-1" points="92.9886122 33.2446809 92.9886122 0.474924012 0.236770408 0.474924012 0.236770408 33.2446809 92.9886122 33.2446809"></polygon>
        <polygon id="path-3" points="0 132.978723 92.9886122 132.978723 92.9886122 0.474924012 0 0.474924012"></polygon>
    </defs>
    <g id="icon" opacity="0.8" stroke="none" stroke-width="1" fill="none" fill-rule="evenodd" transform="translate(117.433419, 0.620893)">
        <path d="M34.9879286,14.7226444 L58.2379286,14.7226444 L58.2379286,0.949848024 L34.9879286,0.949848024 L34.9879286,14.7226444 Z M39.2583367,10.4483283 L53.9675204,10.4483283 L53.9675204,5.22416413 L39.2583367,5.22416413 L39.2583367,10.4483283 Z" id="Fill-1" fill="#202020"></path>
        <path d="M34.9879286,133.453647 L58.2379286,133.453647 L58.2379286,102.583587 L34.9879286,102.583587 L34.9879286,133.453647 Z M39.2583367,129.179331 L53.9675204,129.179331 L53.9675204,106.857903 L39.2583367,106.857903 L39.2583367,129.179331 Z" id="Fill-2" fill="#202020"></path>
        <path d="M39.2583367,64.5896657 L53.9675204,64.5896657 L53.9675204,43.2180851 L39.2583367,43.2180851 L39.2583367,64.5896657 Z M34.9879286,68.8639818 L58.2379286,68.8639818 L58.2379286,38.943769 L34.9879286,38.943769 L34.9879286,68.8639818 Z" id="Fill-3" fill="#202020"></path>
        <polygon id="Fill-4" fill="#202020" points="63.8074898 41.0809271 68.077898 41.0809271 68.077898 12.5854863 63.8074898 12.5854863"></polygon>
        <polygon id="Fill-5" fill="#202020" points="78.0421837 41.0809271 82.3125918 41.0809271 82.3125918 12.5854863 78.0421837 12.5854863"></polygon>
        <g id="Group-21" transform="translate(0.000000, 0.474924)">
            <g id="Group-8" transform="translate(0.000000, 9.498480)">
                <mask id="mask-2" fill="white">
                    <use xlink:href="#path-1"></use>
                </mask>
                <g id="Clip-7"></g>
                <path d="M82.0644337,28.9703647 L88.7186786,28.9703647 L88.7186786,4.74924012 L82.0644337,4.74924012 C81.0974235,8.82883739 77.4277194,11.8731003 73.0605153,11.8731003 C68.6923622,11.8731003 65.0226582,8.82883739 64.055648,4.74924012 L29.2793418,4.74924012 C28.2297704,12.7783055 21.3506173,18.9969605 13.0479949,18.9969605 L4.50717857,18.9969605 L4.50717857,28.9703647 L64.055648,28.9703647 C65.0226582,24.8907675 68.6923622,21.8465046 73.0605153,21.8465046 C77.4277194,21.8465046 81.0974235,24.8907675 82.0644337,28.9703647 L82.0644337,28.9703647 Z M92.9890867,33.2446809 L78.0426582,33.2446809 L78.0426582,31.1075228 C78.0426582,28.3577128 75.8068622,26.1208207 73.0605153,26.1208207 C70.3132194,26.1208207 68.0783724,28.3577128 68.0783724,31.1075228 L68.0783724,33.2446809 L0.236770408,33.2446809 L0.236770408,14.7226444 L13.0479949,14.7226444 C19.7202704,14.7226444 25.1474847,9.28951368 25.1474847,2.61208207 L25.1474847,0.474924012 L68.0783724,0.474924012 L68.0783724,2.61208207 C68.0783724,5.3618921 70.3132194,7.59878419 73.0605153,7.59878419 C75.8068622,7.59878419 78.0426582,5.3618921 78.0426582,2.61208207 L78.0426582,0.474924012 L92.9890867,0.474924012 L92.9890867,33.2446809 Z" id="Fill-6" fill="#202020" mask="url(#mask-2)"></path>
            </g>
            <path d="M37.1232276,96.8844985 C36.4257276,96.8844985 35.7690337,97.156155 35.2765133,97.650076 C34.7849418,98.1420973 34.5135337,98.7993921 34.5135337,99.4965805 C34.5135337,100.193769 34.7849418,100.851064 35.2784112,101.344035 C35.7690337,101.837006 36.4257276,102.108663 37.1232276,102.108663 L56.1028194,102.108663 C56.7993704,102.108663 57.4551153,101.837006 57.9476357,101.343085 C58.4411051,100.850114 58.7125133,100.193769 58.7125133,99.4965805 C58.7125133,98.7993921 58.4411051,98.1430471 57.9476357,97.650076 C57.4551153,97.156155 56.7993704,96.8844985 56.1028194,96.8844985 L37.1232276,96.8844985 Z M56.1028194,106.382979 L37.1232276,106.382979 C35.2850541,106.382979 33.5560133,105.666793 32.2568602,104.365502 C30.9577071,103.06326 30.2431255,101.333587 30.2431255,99.4965805 C30.2431255,97.6586246 30.9577071,95.9299012 32.2549622,94.6286094 C33.5560133,93.3263678 35.2850541,92.6101824 37.1232276,92.6101824 L56.1028194,92.6101824 C57.9409929,92.6101824 59.6681357,93.3263678 60.9672888,94.6276596 C62.2673908,95.9280015 62.9829214,97.6567249 62.9829214,99.4965805 C62.9829214,101.335486 62.2673908,103.06516 60.9672888,104.365502 C59.6681357,105.666793 57.9409929,106.382979 56.1028194,106.382979 L56.1028194,106.382979 Z" id="Fill-9" fill="#202020"></path>
            <path d="M56.1028194,96.8844985 L37.1232276,96.8844985 L37.1232276,92.6101824 L56.1028194,92.6101824 C56.7993704,92.6101824 57.4551153,92.3385258 57.9476357,91.8446049 C58.4411051,91.3516337 58.7125133,90.6952888 58.7125133,89.9981003 C58.7125133,89.3009119 58.4411051,88.6445669 57.9476357,88.1515957 C57.4551153,87.6576748 56.7993704,87.3860182 56.1028194,87.3860182 L41.8681255,87.3860182 L41.8681255,83.1117021 L56.1028194,83.1117021 C57.9409929,83.1117021 59.6681357,83.8278875 60.9672888,85.1291793 C62.2673908,86.4295213 62.9829214,88.1582447 62.9829214,89.9981003 C62.9829214,91.8370061 62.2673908,93.5666793 60.9672888,94.8670213 C59.6681357,96.1683131 57.9409929,96.8844985 56.1028194,96.8844985" id="Fill-11" fill="#202020"></path>
            <path d="M56.1028194,87.3860182 L41.8681255,87.3860182 L41.8681255,83.1117021 L56.1028194,83.1117021 C56.7993704,83.1117021 57.4551153,82.8400456 57.9476357,82.3461246 C58.4411051,81.8531535 58.7125133,81.1968085 58.7125133,80.4996201 C58.7125133,79.8024316 58.4411051,79.1460866 57.9476357,78.6531155 C57.4551153,78.1591945 56.7993704,77.887538 56.1028194,77.887538 L41.8681255,77.887538 L41.8681255,73.6132219 L56.1028194,73.6132219 C57.9409929,73.6132219 59.6681357,74.3294073 60.9672888,75.6306991 C62.2673908,76.931041 62.9829214,78.6597644 62.9829214,80.4996201 C62.9829214,82.3385258 62.2673908,84.0681991 60.9672888,85.368541 C59.6681357,86.6698328 57.9409929,87.3860182 56.1028194,87.3860182" id="Fill-13" fill="#202020"></path>
            <path d="M56.1028194,77.887538 L41.8681255,77.887538 L41.8681255,73.6132219 L56.1028194,73.6132219 C56.7993704,73.6132219 57.4551153,73.3415653 57.9476357,72.8476444 C58.4411051,72.3546733 58.7125133,71.6983283 58.7125133,71.0011398 C58.7125133,70.3039514 58.4411051,69.6476064 57.9476357,69.1546353 C57.4551153,68.6607143 56.7993704,68.3890578 56.1028194,68.3890578 L37.1232276,68.3890578 L37.1232276,64.1147416 L56.1028194,64.1147416 C57.9409929,64.1147416 59.6681357,64.8309271 60.9672888,66.1322188 C62.2673908,67.4325608 62.9829214,69.1612842 62.9829214,71.0011398 C62.9829214,72.8400456 62.2673908,74.5697188 60.9672888,75.8700608 C59.6681357,77.1713526 57.9409929,77.887538 56.1028194,77.887538" id="Fill-15" fill="#202020"></path>
            <path d="M44.0033296,96.8844985 L37.1232276,96.8844985 C35.2841051,96.8844985 33.5560133,96.1683131 32.2568602,94.8670213 C30.9577071,93.5657295 30.2431255,91.8370061 30.2431255,89.9981003 L30.2431255,88.4802432 C26.3855235,93.5818769 20.26935,96.8844985 13.3987378,96.8844985 L13.3987378,92.6101824 C22.686401,92.6101824 30.2431255,85.0465426 30.2431255,75.7503799 L34.5135337,75.7503799 L34.5135337,89.9981003 C34.5135337,90.6952888 34.7849418,91.3525836 35.2774622,91.8455547 C35.7690337,92.3385258 36.4257276,92.6101824 37.1232276,92.6101824 L39.7329214,92.6101824 L39.7329214,71.0011398 C39.7329214,70.3039514 39.4615133,69.6476064 38.9680439,69.1546353 C38.4755235,68.6607143 37.8197786,68.3890578 37.1232276,68.3890578 L22.8885337,68.3890578 C19.1296255,68.3890578 15.6013194,69.8527736 12.9555643,72.5104483 C9.50602347,75.9773936 4.90442143,77.887538 9.48979596e-05,77.887538 L9.48979596e-05,73.6132219 C3.75995204,73.6132219 7.28730918,72.1504559 9.93021735,69.4927812 C13.3845031,66.024886 17.9861051,64.1147416 22.8885337,64.1147416 L37.1232276,64.1147416 C38.961401,64.1147416 40.6885439,64.8309271 41.9876969,66.1322188 C43.287799,67.4325608 44.0033296,69.1612842 44.0033296,71.0011398 L44.0033296,96.8844985 Z" id="Fill-17" fill="#202020"></path>
            <mask id="mask-4" fill="white">
                <use xlink:href="#path-3"></use>
            </mask>
            <g id="Clip-20"></g>
            <polygon id="Fill-19" fill="#202020" mask="url(#mask-4)" points="0 106.382979 37.1231327 106.382979 37.1231327 102.108663 0 102.108663"></polygon>
        </g>
    </g>
</svg>