
<svg width="104px" height="137px" viewBox="78 0 104 137" version="1.1" xmlns="http://www.w3.org/2000/svg" xmlns:xlink="http://www.w3.org/1999/xlink">
    <!-- Generator: Sketch 41.2 (35397) - http://www.bohemiancoding.com/sketch -->
    <desc>Created with Sketch.</desc>
    <defs>
        <polygon id="path-1" points="0 136.527586 103.169891 136.527586 103.169891 0 0 0"></polygon>
    </defs>
    <g id="icon" opacity="0.8" stroke="none" stroke-width="1" fill="none" fill-rule="evenodd" transform="translate(78.000000, 0.000000)">
        <path d="M19.5627782,131.884703 C11.9064873,131.885648 6.50226909,129.648297 4.01005091,125.337048 C-2.17700364,114.626483 11.9008145,95.3595586 37.4838691,79.5251931 L39.7236509,83.1391586 C14.6189964,98.6787379 3.55150545,116.039 7.69448727,123.211186 C10.0212509,127.237097 17.1036509,128.604262 27.1207418,126.960262 L27.8099782,131.155297 C24.8346327,131.643772 22.0767418,131.884703 19.5627782,131.884703 Z" id="Fill-1" fill="#202020"></path>
        <path d="M53.7634618,122.627377 L51.9585891,118.777205 C55.3641164,117.183281 58.8282618,115.374881 62.2555345,113.403026 C71.4444073,108.098763 79.7124073,101.953605 86.1622982,95.6345979 C96.4233164,85.5863566 100.970007,76.1834324 98.0277527,71.0936462 C95.4523345,66.6331152 86.9914618,65.4653083 75.3973527,67.9681566 L74.4991709,63.81186 C88.3973527,60.8120324 98.0617891,62.6440531 101.712189,68.9677841 C105.792771,76.0256462 101.210153,86.8524255 89.1395345,98.6712738 C82.4400436,105.235936 73.8770618,111.604074 64.3809164,117.086908 C60.8477527,119.119232 57.2767709,120.982432 53.7634618,122.627377" id="Fill-3" fill="#202020"></path>
        <path d="M86.1600291,131.884231 C83.7774836,131.884231 81.1774836,131.666921 78.3798836,131.227576 C67.2726836,129.484369 54.1185745,124.461666 41.3417018,117.086341 C16.4072291,102.706066 0.221992727,83.7282586 2.85697455,71.9623207 L7.00846545,72.8910862 C5.10904727,81.3737483 18.2272291,98.8464448 43.4689745,113.404348 C55.80432,120.524569 68.4365382,125.363031 79.0398109,127.027817 C88.8186473,128.562217 95.7393745,127.172376 98.0273745,123.210714 C102.171302,116.037583 91.1000291,98.6735414 65.9887564,83.1292379 L68.2285382,79.5152724 C93.8182109,95.3534172 107.899811,114.624121 101.712756,125.336576 C99.2233745,129.64499 93.8134836,131.884231 86.1600291,131.884231" id="Fill-5" fill="#202020"></path>
        <path d="M8.90145455,62.299569 C6.33927273,62.299569 4.25454545,64.381969 4.25454545,66.9415069 C4.25454545,69.5019897 6.33927273,71.5853345 8.90145455,71.5853345 C11.4626909,71.5853345 13.5464727,69.5019897 13.5464727,66.9415069 C13.5464727,64.381969 11.4626909,62.299569 8.90145455,62.299569 M8.90145455,75.8370586 C3.9936,75.8370586 0,71.8461069 0,66.9415069 C0,62.0378517 3.9936,58.0478448 8.90145455,58.0478448 C13.8083636,58.0478448 17.8010182,62.0378517 17.8010182,66.9415069 C17.8010182,71.8461069 13.8083636,75.8370586 8.90145455,75.8370586" id="Fill-7" fill="#202020"></path>
        <path d="M34.08808,122.990002 C31.5268436,122.990002 29.4430618,125.073347 29.4430618,127.634774 C29.4430618,130.193368 31.5268436,132.275768 34.08808,132.275768 C36.6502618,132.275768 38.7349891,130.193368 38.7349891,127.634774 C38.7349891,125.073347 36.6502618,122.990002 34.08808,122.990002 M34.08808,136.527492 C29.1802255,136.527492 25.1885164,132.53843 25.1885164,127.634774 C25.1885164,122.72923 29.1802255,118.738278 34.08808,118.738278 C38.99688,118.738278 42.9895345,122.72923 42.9895345,127.634774 C42.9895345,132.53843 38.99688,136.527492 34.08808,136.527492" id="Fill-9" fill="#202020"></path>
        <mask id="mask-2" fill="white">
            <use xlink:href="#path-1"></use>
        </mask>
        <g id="Clip-12"></g>
        <polygon id="Fill-11" fill="#202020" mask="url(#mask-2)" points="64.6709818 100.506979 68.9255273 100.506979 68.9255273 85.4993379 64.6709818 85.4993379"></polygon>
        <polygon id="Fill-13" fill="#202020" mask="url(#mask-2)" points="36.7980364 100.506979 41.0525818 100.506979 41.0525818 85.4993379 36.7980364 85.4993379"></polygon>
        <polygon id="Fill-14" fill="#202020" mask="url(#mask-2)" points="34.0893091 87.6252 71.6333091 87.6252 71.6333091 83.3734759 34.0893091 83.3734759"></polygon>
        <polygon id="Fill-15" fill="#202020" mask="url(#mask-2)" points="34.0893091 95.1280759 71.6333091 95.1280759 71.6333091 90.8763517 34.0893091 90.8763517"></polygon>
        <polygon id="Fill-16" fill="#202020" mask="url(#mask-2)" points="34.0893091 102.632841 71.6333091 102.632841 71.6333091 98.3811172 34.0893091 98.3811172"></polygon>
        <polygon id="Fill-17" fill="#202020" mask="url(#mask-2)" points="44.5186182 110.134772 61.2049455 110.134772 61.2049455 105.883048 44.5186182 105.883048"></polygon>
        <path d="M40.9698545,83.3736648 L64.7442545,83.3736648 C65.2916727,75.7583545 68.7643273,68.5776648 74.4597455,63.4132372 L74.6772,63.2186028 C74.9504364,62.9729476 75.2217818,62.7301269 75.4931273,62.5033683 C82.4299273,56.1465683 86.4074545,47.1366924 86.4074545,37.7753407 C86.4074545,19.2907338 71.3577091,4.2519131 52.8589455,4.2519131 C34.3630182,4.2519131 19.3151636,19.2907338 19.3151636,37.7753407 C19.3151636,47.1404717 23.2879636,56.1484579 30.2172,62.499589 C30.4592364,62.7017821 30.7041091,62.9153131 30.9508727,63.1316786 L31.2392364,63.3830028 C36.9554545,68.5908924 40.4224364,75.7744166 40.9698545,83.3736648 L40.9698545,83.3736648 Z M68.9222182,87.625389 L36.7918909,87.625389 L36.7918909,85.4995269 C36.7918909,78.3169476 33.7371273,71.4130924 28.4104364,66.5585683 L28.1476,66.3289752 C27.9159636,66.1267821 27.6890545,65.9274234 27.4630909,65.7403476 L27.3827273,65.6713752 C19.5515273,58.515251 15.0606182,48.3470166 15.0606182,37.7753407 C15.0606182,16.9456717 32.0164,0.000188965517 52.8589455,0.000188965517 C73.7043273,0.000188965517 90.662,16.9456717 90.662,37.7753407 C90.662,48.3422924 86.1673091,58.5105269 78.3304364,65.6713752 L78.2585818,65.7346786 C78.0127636,65.9387614 77.7678909,66.159851 77.5192364,66.3828303 L77.3074545,66.5727407 C71.9826545,71.4008097 68.9222182,78.3027752 68.9222182,85.4995269 L68.9222182,87.625389 Z" id="Fill-18" fill="#202020" mask="url(#mask-2)"></path>
        <polygon id="Fill-19" fill="#202020" mask="url(#mask-2)" points="54.8903491 57.7770572 50.8296218 56.5090986 56.0230036 39.8999745 43.9088945 39.8999745 50.8296218 17.7711676 54.8903491 19.040071 49.6960218 35.6482503 61.8101309 35.6482503"></polygon>
    </g>
</svg>
