
<svg width="157px" height="133px" viewBox="84 0 157 133" version="1.1" xmlns="http://www.w3.org/2000/svg" xmlns:xlink="http://www.w3.org/1999/xlink">
    <!-- Generator: Sketch 41.2 (35397) - http://www.bohemiancoding.com/sketch -->
    <desc>Created with Sketch.</desc>
    <defs></defs>
    <g id="icon" opacity="0.8" stroke="none" stroke-width="1" fill="none" fill-rule="evenodd" transform="translate(84.433419, 0.620893)">
        <polygon id="Fill-1" fill="#191818" points="0 92.216 6.039 95.236 7.548 92.217 6.039 89.198"></polygon>
        <path d="M68.5567,62.9753 L66.5447,58.9503 L70.5787,56.9343 L72.5907,60.9593 L68.5567,62.9753 Z M60.4897,67.0083 L58.4777,62.9833 L62.5117,60.9663 L64.5237,64.9923 L60.4897,67.0083 Z M52.4217,71.0423 L50.4107,67.0163 L54.4447,65.0003 L56.4557,69.0253 L52.4217,71.0423 Z M44.3547,75.0743 L42.3427,71.0493 L46.3757,69.0333 L48.3877,73.0583 L44.3547,75.0743 Z M36.2867,79.1073 L34.2757,75.0823 L38.3087,73.0653 L40.3207,77.0913 L36.2867,79.1073 Z M28.2187,83.1413 L26.2067,79.1153 L30.2407,77.0993 L32.2527,81.1243 L28.2187,83.1413 Z M20.1517,87.1733 L18.1397,83.1483 L22.1737,81.1323 L24.1857,85.1573 L20.1517,87.1733 Z M12.0837,91.2073 L10.0727,87.1813 L14.1067,85.1653 L16.1177,89.1903 L12.0837,91.2073 Z" id="Fill-2" fill="#191818"></path>
        <path d="M86.7071,62.9753 L82.6731,60.9583 L84.6841,56.9333 L88.7191,58.9503 L86.7071,62.9753 Z M94.7741,67.0083 L90.7401,64.9923 L92.7521,60.9663 L96.7861,62.9833 L94.7741,67.0083 Z M102.8421,71.0413 L98.8071,69.0253 L100.8191,65.0003 L104.8531,67.0163 L102.8421,71.0413 Z M110.9091,75.0743 L106.8761,73.0583 L108.8881,69.0323 L112.9211,71.0493 L110.9091,75.0743 Z M118.9771,79.1073 L114.9431,77.0913 L116.9551,73.0653 L120.9881,75.0823 L118.9771,79.1073 Z M127.0451,83.1413 L123.0111,81.1243 L125.0221,77.0993 L129.0571,79.1153 L127.0451,83.1413 Z M135.1121,87.1733 L131.0781,85.1573 L133.0901,81.1323 L137.1241,83.1483 L135.1121,87.1733 Z M143.1801,91.2073 L139.1451,89.1903 L141.1571,85.1653 L145.1911,87.1813 L143.1801,91.2073 Z" id="Fill-3" fill="#191818"></path>
        <polygon id="Fill-4" fill="#191818" points="147.7161 92.2169 149.2241 95.2359 155.2631 92.2159 149.2241 89.1979"></polygon>
        <path d="M141.1573,99.2698 L139.1453,95.2448 L143.1793,93.2278 L145.1913,97.2528 L141.1573,99.2698 Z M133.0903,103.3038 L131.0783,99.2778 L135.1123,97.2608 L137.1243,101.2868 L133.0903,103.3038 Z M125.0223,107.3368 L123.0113,103.3118 L127.0443,101.2948 L129.0553,105.3208 L125.0223,107.3368 Z M116.9563,111.3708 L114.9423,107.3468 L118.9753,105.3298 L120.9893,109.3538 L116.9563,111.3708 Z M108.8863,115.4048 L106.8753,111.3798 L110.9093,109.3628 L112.9213,113.3888 L108.8863,115.4048 Z M100.8193,119.4388 L98.8073,115.4138 L102.8413,113.3968 L104.8533,117.4218 L100.8193,119.4388 Z M92.7533,123.4728 L90.7393,119.4478 L94.7723,117.4308 L96.7863,121.4558 L92.7533,123.4728 Z M84.6843,127.5068 L82.6733,123.4808 L86.7063,121.4648 L88.7183,125.4898 L84.6843,127.5068 Z" id="Fill-5" fill="#191818"></path>
        <polygon id="Fill-6" fill="#191818" points="77.6322 126.002 76.6252 125.498 74.6132 129.524 77.6322 131.033 80.6512 129.524 78.6382 125.498"></polygon>
        <path d="M14.1065,99.2693 L10.0735,97.2523 L12.0855,93.2273 L16.1185,95.2443 L14.1065,99.2693 Z M22.1725,103.3033 L18.1395,101.2863 L20.1535,97.2613 L24.1865,99.2783 L22.1725,103.3033 Z M30.2425,107.3373 L26.2085,105.3203 L28.2195,101.2943 L32.2535,103.3113 L30.2425,107.3373 Z M38.3095,111.3713 L34.2755,109.3543 L36.2875,105.3293 L40.3215,107.3453 L38.3095,111.3713 Z M46.3765,115.4043 L42.3425,113.3873 L44.3565,109.3633 L48.3895,111.3803 L46.3765,115.4043 Z M54.4445,119.4383 L50.4115,117.4223 L52.4225,113.3963 L56.4565,115.4133 L54.4445,119.4383 Z M62.5125,123.4733 L58.4785,121.4563 L60.4905,117.4303 L64.5245,119.4473 L62.5125,123.4733 Z M70.5805,127.5063 L66.5455,125.4893 L68.5575,121.4643 L72.5915,123.4813 L70.5805,127.5063 Z" id="Fill-7" fill="#191818"></path>
        <polygon id="Fill-8" fill="#202020" points="125.2901 94.2293 77.6321 70.4083 29.9761 94.2293 27.9641 90.2043 77.6321 65.3763 127.3021 90.2043"></polygon>
        <path d="M77.6322,0.0002 L25.8612,93.1782 L77.6322,119.0642 L129.4042,93.1782 L77.6322,0.0002 Z M32.0782,91.2552 L77.6322,9.2652 L123.1872,91.2552 L77.6322,114.0332 L32.0782,91.2552 Z" id="Fill-9" fill="#202020"></path>
        <polygon id="Fill-10" fill="#202020" points="75.382 116.549 79.882 116.549 79.882 4.633 75.382 4.633"></polygon>
    </g>
</svg>