<svg width="111px" height="143px" viewBox="84 0 111 143" version="1.1" xmlns="http://www.w3.org/2000/svg" xmlns:xlink="http://www.w3.org/1999/xlink">
    <!-- Generator: Sketch 41.2 (35397) - http://www.bohemiancoding.com/sketch -->
    <desc>Created with Sketch.</desc>
    <defs>
        <polygon id="path-1" points="0 142.249 110.096 142.249 110.096 0 0 0"></polygon>
    </defs>
    <g id="icon" opacity="0.800000012" stroke="none" stroke-width="1" fill="none" fill-rule="evenodd" transform="translate(84.000000, 0.000000)">
        <path d="M71.7827,91.1059 L69.8867,87.0259 C82.2867,81.2589 90.2997,68.7079 90.2997,55.0499 C90.2997,35.6129 74.4857,19.7999 55.0487,19.7999 C35.6117,19.7999 19.7987,35.6129 19.7987,55.0499 C19.7987,68.7079 27.8107,81.2589 40.2117,87.0249 L38.3137,91.1049 C24.3327,84.6039 15.2987,70.4509 15.2987,55.0499 C15.2987,33.1309 33.1307,15.2999 55.0487,15.2999 C76.9677,15.2999 94.7997,33.1309 94.7997,55.0499 C94.7997,70.4519 85.7647,84.6039 71.7827,91.1059 Z" id="Fill-1" fill="#202020"></path>
        <polygon id="Fill-3" fill="#202020" points="62.9379 62.9384 55.0479 55.0494 47.1559 62.9404"></polygon>
        <path d="M62.5629,114.5937 L68.5839,114.5947 L68.5839,73.0827 L62.5629,73.0817 L62.5629,114.5937 Z M70.8339,119.0947 L70.8339,119.0947 L60.3129,119.0937 C59.0699,119.0937 58.0629,118.0867 58.0629,116.8437 L58.0629,70.8317 C58.0629,70.2357 58.2999,69.6627 58.7219,69.2417 C59.1439,68.8187 59.7159,68.5817 60.3129,68.5817 L70.8339,68.5827 C72.0779,68.5827 73.0839,69.5907 73.0839,70.8327 L73.0839,116.8447 C73.0839,117.4417 72.8469,118.0137 72.4249,118.4357 C72.0039,118.8577 71.4309,119.0947 70.8339,119.0947 L70.8339,119.0947 Z" id="Fill-5" fill="#202020"></path>
        <path d="M52.0371,73.082 L52.0381,114.595 L58.0631,114.594 L58.0631,73.082 L52.0371,73.082 Z M49.7881,119.095 C49.1911,119.095 48.6191,118.858 48.1971,118.436 C47.7751,118.014 47.5381,117.441 47.5381,116.845 L47.5371,70.832 C47.5371,70.235 47.7741,69.663 48.1961,69.241 C48.6181,68.819 49.1901,68.582 49.7871,68.582 L60.3131,68.582 C61.5551,68.582 62.5631,69.589 62.5631,70.832 L62.5631,116.844 C62.5631,118.086 61.5561,119.094 60.3131,119.094 L49.7881,119.095 Z" id="Fill-7" fill="#202020"></path>
        <path d="M41.5127,73.0859 L41.5127,114.5959 L47.5377,114.5949 L47.5367,73.0829 L41.5127,73.0859 Z M39.2627,119.0969 C38.6667,119.0969 38.0937,118.8599 37.6717,118.4379 C37.2497,118.0159 37.0127,117.4429 37.0127,116.8469 L37.0127,70.8369 C37.0127,69.5949 38.0197,68.5869 39.2617,68.5869 L49.7857,68.5819 L49.7867,68.5819 C50.3837,68.5819 50.9557,68.8189 51.3777,69.2409 C51.7997,69.6629 52.0367,70.2349 52.0367,70.8319 L52.0377,116.8449 C52.0377,118.0869 51.0307,119.0949 49.7887,119.0949 L39.2627,119.0969 Z" id="Fill-9" fill="#202020"></path>
        <polygon id="Fill-11" fill="#202020" points="40.854 72.4277 37.671 69.2457 55.047 51.8677 72.425 69.2417 69.244 72.4247 55.048 58.2317"></polygon>
        <path d="M41.5131,121.9619 L68.5851,121.9639 L68.5851,119.0949 L41.5131,119.0969 L41.5131,121.9619 Z M70.8361,126.4639 L70.8361,126.4639 L39.2641,126.4619 C38.0211,126.4619 37.0141,125.4549 37.0141,124.2119 L37.0131,116.8469 C37.0131,116.2499 37.2491,115.6779 37.6711,115.2559 C38.0931,114.8339 38.6661,114.5969 39.2631,114.5969 L70.8341,114.5949 C72.0771,114.5949 73.0841,115.6019 73.0841,116.8439 L73.0861,124.2129 C73.0861,124.8099 72.8491,125.3829 72.4271,125.8049 C72.0051,126.2269 71.4331,126.4639 70.8361,126.4639 L70.8361,126.4639 Z" id="Fill-13" fill="#202020"></path>
        <path d="M41.7006,126.4619 C42.7756,132.8559 48.3536,137.7449 55.0526,137.7489 L55.0546,139.9989 L55.0546,137.7489 C58.6686,137.7489 62.0656,136.3409 64.6226,133.7839 C66.6406,131.7659 67.9426,129.2229 68.4016,126.4639 L41.7006,126.4619 Z M55.0546,142.2489 L55.0546,142.2489 L55.0506,142.2489 C45.1046,142.2439 37.0136,134.1519 37.0136,124.2119 L37.0136,121.9619 L73.0856,121.9639 L73.0866,124.2129 C73.0876,129.0299 71.2116,133.5589 67.8046,136.9659 C64.3986,140.3729 59.8706,142.2489 55.0546,142.2489 L55.0546,142.2489 Z" id="Fill-15" fill="#202020"></path>
        <mask id="mask-2" fill="white">
            <use xlink:href="#path-1"></use>
        </mask>
        <g id="Clip-18"></g>
        <polygon id="Fill-17" fill="#202020" mask="url(#mask-2)" points="52.798 7.593 57.299 7.593 57.299 0 52.798 0"></polygon>
        <polygon id="Fill-19" fill="#202020" mask="url(#mask-2)" points="38.2426 10.6098 35.8986 3.3908 40.1796 2.0018 42.5226 9.2198"></polygon>
        <polygon id="Fill-20" fill="#202020" mask="url(#mask-2)" points="25.3339 17.978 20.8709 11.835 24.5119 9.19 28.9749 15.333"></polygon>
        <polygon id="Fill-21" fill="#202020" mask="url(#mask-2)" points="15.3344 28.9755 9.1914 24.5115 11.8374 20.8705 17.9804 25.3345"></polygon>
        <polygon id="Fill-22" fill="#202020" mask="url(#mask-2)" points="9.2197 42.5234 1.9997 40.1774 3.3907 35.8984 10.6107 38.2444"></polygon>
        <polygon id="Fill-23" fill="#202020" mask="url(#mask-2)" points="0 57.3 7.592 57.3 7.592 52.8 0 52.8"></polygon>
        <polygon id="Fill-24" fill="#202020" mask="url(#mask-2)" points="3.3906 74.1992 1.9996 69.9202 9.2196 67.5742 10.6106 71.8532"></polygon>
        <polygon id="Fill-25" fill="#202020" mask="url(#mask-2)" points="11.8364 89.225 9.1924 85.583 15.3354 81.125 17.9794 84.766"></polygon>
        <polygon id="Fill-26" fill="#202020" mask="url(#mask-2)" points="24.5122 100.9057 20.8722 98.2607 25.3362 92.1197 28.9762 94.7647"></polygon>
        <polygon id="Fill-27" fill="#202020" mask="url(#mask-2)" points="85.5844 100.9033 81.1254 94.7623 84.7664 92.1183 89.2254 98.2583"></polygon>
        <polygon id="Fill-28" fill="#202020" mask="url(#mask-2)" points="98.2602 89.2236 92.1192 84.7626 94.7642 81.1216 100.9052 85.5826"></polygon>
        <polygon id="Fill-29" fill="#202020" mask="url(#mask-2)" points="106.7065 74.1982 99.4895 71.8502 100.8825 67.5712 108.0995 69.9192"></polygon>
        <polygon id="Fill-30" fill="#202020" mask="url(#mask-2)" points="102.508 57.298 110.096 57.298 110.096 52.798 102.508 52.798"></polygon>
        <polygon id="Fill-31" fill="#202020" mask="url(#mask-2)" points="100.8784 42.5209 99.4894 38.2409 106.7084 35.8979 108.0974 40.1779"></polygon>
        <polygon id="Fill-32" fill="#202020" mask="url(#mask-2)" points="94.7622 28.9736 92.1172 25.3326 98.2602 20.8696 100.9052 24.5106"></polygon>
        <polygon id="Fill-33" fill="#202020" mask="url(#mask-2)" points="84.7622 17.975 81.1212 15.329 85.5842 9.189 89.2252 11.834"></polygon>
        <polygon id="Fill-34" fill="#202020" mask="url(#mask-2)" points="71.853 10.6093 67.574 9.2163 69.923 1.9993 74.203 3.3913"></polygon>
    </g>
</svg>