
<svg width="33px" height="33px" viewBox="0 34 33 33" version="1.1" xmlns="http://www.w3.org/2000/svg" xmlns:xlink="http://www.w3.org/1999/xlink">
    <!-- Generator: Sketch 41.2 (35397) - http://www.bohemiancoding.com/sketch -->
    <desc>Created with Sketch.</desc>
    <defs></defs>
    <g id="linkedin" stroke="none" stroke-width="1" fill="none" fill-rule="evenodd" transform="translate(0.000000, 34.000000)">
        <g id="Group">
            <path d="M16.005,32.614 C7.39,32.614 0.38,25.604 0.38,16.989 C0.38,8.374 7.39,1.364 16.005,1.364 C24.62,1.364 31.63,8.374 31.63,16.989 C31.63,25.604 24.62,32.614 16.005,32.614 Z" id="Shape" fill="#FFFFFF"></path>
            <path d="M16.005,1.739 C24.414,1.739 31.255,8.58 31.255,16.989 C31.255,25.398 24.414,32.239 16.005,32.239 C7.596,32.239 0.755,25.398 0.755,16.989 C0.755,8.58 7.596,1.739 16.005,1.739 L16.005,1.739 Z M16.005,0.989 C7.168,0.989 0.005,8.152 0.005,16.989 C0.005,25.825 7.168,32.989 16.005,32.989 C24.842,32.989 32.005,25.825 32.005,16.989 C32.005,8.153 24.842,0.989 16.005,0.989 L16.005,0.989 Z" id="Shape" fill="#E5E5E5"></path>
        </g>
        <path d="M24.299,23.932 L24.299,17.795 C24.299,14.507 22.544,12.977 20.203,12.977 C18.314,12.977 17.468,14.016 16.997,14.745 L16.997,13.228 L13.439,13.228 C13.486,14.233 13.439,23.932 13.439,23.932 L16.997,23.932 L16.997,17.954 C16.997,17.635 17.02,17.315 17.114,17.087 C17.371,16.448 17.956,15.786 18.939,15.786 C20.227,15.786 20.742,16.767 20.742,18.206 L20.742,23.933 L24.299,23.932 L24.299,23.932 Z M9.69,11.767 C10.93,11.767 11.703,10.944 11.703,9.917 C11.68,8.867 10.93,8.068 9.713,8.068 C8.496,8.068 7.701,8.866 7.701,9.916 C7.701,10.944 8.473,11.766 9.668,11.766 L9.69,11.766 L9.69,11.767 Z M11.469,23.932 L11.469,13.228 L7.912,13.228 L7.912,23.932 L11.469,23.932 L11.469,23.932 Z" id="Shape" fill="#333333"></path>
    </g>
</svg>