
<svg width="404px" height="128px" viewBox="0 36 404 128" version="1.1" xmlns="http://www.w3.org/2000/svg" xmlns:xlink="http://www.w3.org/1999/xlink">
    <!-- Generator: Sketch 41.2 (35397) - http://www.bohemiancoding.com/sketch -->
    <desc>Created with Sketch.</desc>
    <defs>
        <polygon id="path-1" points="85.6063749 42.9184193 85.6063749 0.782490888 0.283071669 0.782490888 0.283071669 42.9184193 85.6063749 42.9184193"></polygon>
    </defs>
    <g id="logo" stroke="none" stroke-width="1" fill="none" fill-rule="evenodd" transform="translate(0.000000, 36.000000)">
        <g id="Page-1" transform="translate(123.000000, 0.000000)">
            <polygon id="Fill-1" fill="#FFFFFF" points="12.7596364 53.2862002 7.20474583 68.2604943 7.15311419 68.936018 7.10260498 68.2604943 1.53424529 53.2862002 0.675588732 53.2862002 0.675588732 71.5465541 2.32780108 71.5465541 2.32780108 59.0298263 2.43106436 59.8058411 6.73108169 71.5465541 7.60208494 71.5465541 11.8639398 59.8058411 11.9784273 59.0298263 11.9784273 71.5465541 13.6306397 71.5465541 13.6306397 53.2862002"></polygon>
            <polygon id="Fill-2" fill="#FFFFFF" points="19.7827736 71.5461075 21.4338635 71.5461075 21.4338635 53.2857536 19.7827736 53.2857536"></polygon>
            <polygon id="Fill-3" fill="#FFFFFF" points="36.2767242 53.2862002 36.2767242 67.369473 36.110605 66.5923417 28.4556537 53.2862002 27.5981196 53.2862002 27.5981196 71.5465541 29.2492095 71.5465541 29.2492095 57.4621647 29.402982 58.2526949 37.0579333 71.5465541 37.9278141 71.5465541 37.9278141 53.2862002"></polygon>
            <g id="Group-23" transform="translate(0.000000, 0.340330)">
                <path d="M52.7711237,57.4407266 C52.7711237,57.0331793 52.6947987,56.6535462 52.5410262,56.3007107 C52.3872537,55.9489917 52.1762375,55.6385858 51.906855,55.371726 C51.638595,55.1037497 51.3265603,54.8938349 50.9729959,54.7408651 C50.618309,54.5878953 50.2366839,54.5119686 49.826998,54.5119686 L45.7436091,54.5119686 L45.7436091,69.6392325 L49.826998,69.6392325 C50.2366839,69.6392325 50.618309,69.5633059 50.9729959,69.4103361 C51.3265603,69.2573663 51.638595,69.0496846 51.906855,68.7861746 C52.1762375,68.5237811 52.3872537,68.2156083 52.5410262,67.8627728 C52.6947987,67.5110538 52.7711237,67.1314207 52.7711237,66.7238734 L52.7711237,57.4407266 Z M54.0697716,68.4679527 C53.8351844,69.0117213 53.5130479,69.4862627 53.1044845,69.8938101 C52.6947987,70.3013574 52.2144,70.6218124 51.6632884,70.8551751 C51.1132992,71.0885379 50.52627,71.2057775 49.9033231,71.2057775 L44.0925192,71.2057775 L44.0925192,52.9454237 L49.9033231,52.9454237 C50.52627,52.9454237 51.1132992,53.0626633 51.6632884,53.296026 C52.2144,53.5293888 52.6947987,53.8498438 53.1044845,54.2573911 C53.5130479,54.6649385 53.8351844,55.1428296 54.0697716,55.6899479 C54.3054813,56.2370663 54.4222137,56.8210314 54.4222137,57.4407266 L54.4222137,66.7238734 C54.4222137,67.3435686 54.3054813,67.9253006 54.0697716,68.4679527 L54.0697716,68.4679527 Z" id="Fill-4" fill="#FFFFFF"></path>
                <polygon id="Fill-6" fill="#FFFFFF" points="79.6158704 71.2056659 79.6158704 58.688938 79.5002605 59.4649528 75.2384056 71.2056659 74.3674024 71.2056659 70.067385 59.4649528 69.9641218 58.688938 69.9641218 71.2056659 68.3130319 71.2056659 68.3130319 52.945312 69.170566 52.945312 74.7389257 67.9207227 74.7905573 68.5951298 74.8410665 67.9207227 80.3970795 52.945312 81.2669603 52.945312 81.2669603 71.2056659"></polygon>
                <path d="M88.9421153,65.3864482 L93.8695692,65.3864482 L91.4507393,56.9697582 L91.3991077,56.2942346 L91.3485985,56.9697582 L88.9421153,65.3864482 Z M94.3050709,66.9529931 L88.494267,66.9529931 L87.2910254,71.2060008 L85.5759571,71.2060008 L90.9512594,52.945647 L91.8222626,52.945647 L97.2233807,71.2060008 L95.5217816,71.2060008 L94.3050709,66.9529931 Z" id="Fill-8" fill="#FFFFFF"></path>
                <path d="M110.505395,71.2056659 L103.59349,62.0754889 L110.505395,52.945312 L112.553824,52.945312 L105.500493,62.0754889 L112.553824,71.2056659 L110.505395,71.2056659 Z M101.545061,71.2056659 L103.196151,71.2056659 L103.196151,52.945312 L101.545061,52.945312 L101.545061,71.2056659 Z" id="Fill-10" fill="#FFFFFF"></path>
                <polygon id="Fill-12" fill="#FFFFFF" points="117.143652 71.2056659 117.143652 52.945312 127.473346 52.945312 127.473346 54.511857 118.794741 54.511857 118.794741 61.2994741 125.822256 61.2994741 125.822256 62.8649025 118.794741 62.8649025 118.794741 69.6391209 127.473346 69.6391209 127.473346 71.2056659"></polygon>
                <path d="M140.998365,57.4407266 C140.998365,57.0331793 140.92204,56.6535462 140.768268,56.3007107 C140.614495,55.9489917 140.404602,55.6385858 140.140831,55.371726 C139.875938,55.1037497 139.567271,54.8938349 139.212584,54.7408651 C138.85902,54.5878953 138.476272,54.5119686 138.067709,54.5119686 L133.970851,54.5119686 L133.970851,61.8467041 L138.067709,61.8467041 C138.476272,61.8467041 138.85902,61.7696609 139.212584,61.6178077 C139.567271,61.4648379 139.875938,61.2549231 140.140831,60.9869467 C140.404602,60.720087 140.614495,60.4096811 140.768268,60.0579621 C140.92204,59.7051266 140.998365,59.3254935 140.998365,58.9179462 L140.998365,57.4407266 Z M141.216116,71.2057775 L136.237031,63.4132491 L133.970851,63.4132491 L133.970851,71.2057775 L132.319761,71.2057775 L132.319761,52.9454237 L138.144034,52.9454237 C138.766981,52.9454237 139.351765,53.0626633 139.897265,53.296026 C140.443886,53.5293888 140.92204,53.8498438 141.331726,54.2573911 C141.741412,54.6649385 142.062426,55.1428296 142.298136,55.6899479 C142.532723,56.2370663 142.649455,56.8210314 142.649455,57.4407266 L142.649455,58.9179462 C142.649455,59.5376414 142.532723,60.1216065 142.298136,60.6687249 C142.062426,61.2158432 141.741412,61.6937343 141.331726,62.1012817 C140.92204,62.508829 140.443886,62.829284 139.897265,63.0626467 C139.351765,63.2960095 138.766981,63.4132491 138.144034,63.4132491 L143.123119,71.2057775 L141.216116,71.2057775 Z" id="Fill-14" fill="#FFFFFF"></path>
                <path d="M158.299341,66.9781159 C158.299341,67.5978112 158.173629,68.1795431 157.922205,68.7221952 C157.669659,69.2659638 157.332931,69.7416218 156.910899,70.1491692 C156.488866,70.5567165 155.997243,70.8771715 155.438275,71.1105343 C154.879306,71.343897 154.28891,71.4600201 153.665963,71.4600201 L152.347111,71.4600201 C151.724164,71.4600201 151.132645,71.343897 150.574799,71.1105343 C150.015831,70.8771715 149.52533,70.5567165 149.102175,70.1491692 C148.680143,69.7416218 148.342292,69.2659638 148.090868,68.7221952 C147.839445,68.1795431 147.713733,67.5978112 147.713733,66.9781159 L147.713733,66.2523467 L149.364823,65.9843704 L149.364823,66.9781159 C149.364823,67.3856633 149.447883,67.7652964 149.614002,68.1181319 C149.781243,68.4698508 150.004606,68.7802567 150.286335,69.0471165 C150.568065,69.3150928 150.894691,69.5250076 151.266214,69.6779775 C151.636615,69.8309473 152.02722,69.9068739 152.436905,69.9068739 L153.588515,69.9068739 C153.998201,69.9068739 154.386561,69.8309473 154.753594,69.6779775 C155.120628,69.5250076 155.445009,69.3150928 155.726738,69.0471165 C156.008468,68.7802567 156.231831,68.4698508 156.399072,68.1181319 C156.565191,67.7652964 156.648251,67.3856633 156.648251,66.9781159 L156.648251,66.4309976 C156.648251,65.8023698 156.524784,65.2809325 156.276728,64.8644526 C156.029794,64.4479727 155.700923,64.0940207 155.291237,63.8014798 C154.881551,63.5078224 154.419111,63.2599443 153.902795,63.0567289 C153.386478,62.852397 152.854448,62.6491816 152.308949,62.4448496 C151.762327,62.2416343 151.231419,62.0160875 150.715102,61.7704425 C150.198786,61.523681 149.736346,61.2166248 149.32666,60.8470408 C148.916975,60.4774567 148.588104,60.0252467 148.34117,59.4904106 C148.093113,58.9555745 147.969646,58.2979159 147.969646,57.5174349 L147.969646,57.1735319 C147.969646,56.5538366 148.086379,55.9721047 148.320966,55.428336 C148.556676,54.885684 148.878812,54.410026 149.288498,54.0024786 C149.697061,53.5949313 150.17746,53.2744763 150.728572,53.0411136 C151.278561,52.8077508 151.86559,52.6916278 152.488537,52.6916278 L153.665963,52.6916278 C154.28891,52.6916278 154.873694,52.8077508 155.419193,53.0411136 C155.965815,53.2744763 156.442847,53.5949313 156.853655,54.0024786 C157.262218,54.410026 157.584355,54.885684 157.818942,55.428336 C158.053529,55.9721047 158.171384,56.5538366 158.171384,57.1735319 L158.171384,57.6447236 L156.520294,57.9115834 L156.520294,57.1735319 C156.520294,56.7659846 156.442847,56.3863514 156.290197,56.0335159 C156.136424,55.681797 155.92653,55.3736242 155.66276,55.1101141 C155.397867,54.8477207 155.088078,54.6389224 154.734513,54.4870692 C154.379826,54.3340993 153.998201,54.2570562 153.588515,54.2570562 L152.564862,54.2570562 C152.155176,54.2570562 151.773551,54.3340993 151.418864,54.4870692 C151.0653,54.6389224 150.753265,54.8477207 150.485005,55.1101141 C150.215623,55.3736242 150.004606,55.681797 149.850834,56.0335159 C149.697061,56.3863514 149.620736,56.7659846 149.620736,57.1735319 L149.620736,57.5174349 C149.620736,58.1025165 149.744203,58.594923 149.99226,58.9946544 C150.239193,59.3932692 150.568065,59.734939 150.97775,60.0196638 C151.387436,60.3032721 151.849876,60.5500337 152.366192,60.7577153 C152.882509,60.965397 153.413417,61.1775449 153.960039,61.3941591 C154.505538,61.6107733 155.037568,61.8486023 155.553885,62.1076461 C156.070201,62.3666899 156.532641,62.6849118 156.942327,63.0623118 C157.352013,63.4408283 157.680884,63.9008544 157.927818,64.444623 C158.175874,64.9872751 158.299341,65.6493999 158.299341,66.4309976 L158.299341,66.9781159 Z" id="Fill-16" fill="#FFFFFF"></path>
                <path d="M68.779288,27.7222631 L64.319886,27.4006915 L63.7541829,27.7133306 L61.5340225,30.7872424 L59.3262089,33.8700868 L58.1285794,35.5494051 C58.1981699,34.1224312 58.2655155,32.6954572 58.3373508,31.2684833 L58.7616282,21.6559489 L59.1286618,12.042298 L59.4451861,2.42976373 L53.4054072,1.09434834 C51.7745209,4.27210101 50.1885317,7.47106846 48.5789716,10.6588702 L46.1781005,15.4478306 L43.799678,20.2468401 L42.2529738,23.3676478 L42.2574635,21.8122685 L42.2866466,12.1204578 L42.2821569,7.27455249 L42.2675653,2.42976373 L34.1715003,0.77612645 C32.8492815,3.88241876 31.5068589,6.97977852 30.2025989,10.0927702 L26.2785946,19.4283957 C25.9811515,20.130717 25.6904429,20.836388 25.3963671,21.5398259 L25.3907549,21.3433099 L25.2695328,16.7709637 L25.1236173,12.1986176 C25.0225989,9.1503868 24.9384169,6.10215604 24.8160724,3.05504183 L19.3083237,2.38733414 C18.6472143,5.57848562 17.9614115,8.76405426 17.3205057,11.9607886 C16.6751103,15.1564063 16.0128784,18.3475578 15.3888091,21.5487584 L14.4414808,26.3466513 L13.5177235,31.1512436 C13.2079337,32.7524022 12.9048784,34.3546773 12.6085577,35.9591856 L11.8340832,40.1507821 L9.43321213,40.3450649 L6.28929447,40.6186241 L3.14425439,40.8966495 C2.09590769,40.9848584 1.04868342,41.0942821 0.000336728061,41.1947732 C1.05092828,41.2595341 2.10151983,41.3354608 3.15211138,41.389056 L6.30500845,41.5621241 L9.4567831,41.7318424 L12.6085577,41.8825791 L13.4672143,41.2014726 L14.9353486,36.5308685 C15.4247268,34.9743726 15.9073703,33.4156436 16.3832793,31.855798 L17.8166184,27.1773779 L18.5663996,24.685198 L18.4182392,30.4868856 L18.2307939,39.6315779 L25.5052425,41.1166134 C26.9127658,38.0471679 28.2798817,34.9609738 29.6649564,31.8814791 C31.0421742,28.7986347 32.4373508,25.7247229 33.79212,22.6318294 L33.8415068,22.519056 L33.8538535,26.6581738 L33.8976282,31.5029625 L33.984055,41.1947732 L41.7310453,42.9075886 L46.147795,33.151017 C46.8796173,31.5241773 47.6249088,29.901804 48.3466293,28.2693815 L50.5252598,23.3765803 L52.7038904,18.4848957 L53.5928524,16.4639075 L53.7903996,21.6559489 L54.2146769,31.2684833 C54.3763064,34.4730336 54.5177322,37.6775838 54.7006878,40.8821341 L57.6122631,41.7117442 L59.4485534,38.3988868 L61.2702522,35.0770969 L63.084094,31.7497241 L64.7329391,28.6981436 L68.779288,28.4067193 L71.0095502,28.2459336 L73.2386899,28.0650495 L71.0095502,27.8830489 L68.779288,27.7222631 Z" id="Fill-18" fill="#FFFFFF"></path>
                <g id="Group-22" transform="translate(72.957746, 0.000000)">
                    <mask id="mask-2" fill="white">
                        <use xlink:href="#path-1"></use>
                    </mask>
                    <g id="Clip-21"></g>
                    <path d="M83.0758635,39.3007388 L80.5470358,39.302972 C78.8600282,39.3052051 77.174143,39.3007388 75.4893803,39.3219536 C73.8034951,39.3353524 72.1187324,39.3509844 70.4350921,39.3788986 C69.293584,39.3956471 68.1520758,39.4123956 67.0116901,39.4313773 L67.20587,36.0760903 L67.458416,31.2692649 C67.5414756,29.6669897 67.6279025,28.0647146 67.697493,26.4624394 L67.9197335,21.655614 C68.0723835,18.4510637 68.1846262,15.2465134 68.3193174,12.0430796 C68.4506414,8.83852935 68.5449252,5.63397905 68.6594128,2.42942876 L62.6263684,1.09512994 C61.8092416,2.6828897 60.9988494,4.27511574 60.1963142,5.87069148 L57.781974,10.6529524 C56.9771939,12.2474116 56.1690466,13.8396376 55.3777356,15.4396796 L52.993701,20.236456 L51.4829144,23.2757542 L51.4874041,21.8119335 C51.4930163,18.5817021 51.5199545,15.3514708 51.4997508,12.1212394 L51.4694453,2.42942876 L43.4025634,0.782490888 C42.0668754,3.88208379 40.7805742,7.00289148 39.4684572,10.1136501 L37.5086999,14.7820211 C36.8509577,16.3374004 36.2111744,17.8994791 35.5680238,19.4593246 L34.3782514,22.3423033 L34.3445785,21.3429749 L34.1896836,16.7706288 L34.0157075,12.1993992 C33.8888732,9.1511684 33.7822427,6.10293763 33.6340823,3.05470686 L28.9928472,2.22732994 L26.8355428,8.63084769 L24.6961972,15.0421814 L22.5647086,21.4557483 L20.7261733,27.063153 C20.1840412,27.1256808 19.6430314,27.1893252 19.1020217,27.2529696 C18.198468,27.3568104 17.2949144,27.4718169 16.3924832,27.5901731 C15.4889296,27.7007134 14.5864984,27.8358181 13.6829447,27.9664566 L12.3281755,28.1607394 C12.1867497,28.1819542 12.0453239,28.2042856 11.9050206,28.2277335 C11.9353261,27.1893252 11.6906371,26.1598495 11.1664637,25.2319814 C10.4054583,23.8854004 9.16293174,22.9128696 7.66785915,22.4963897 C7.15378765,22.3523524 6.62512459,22.2797755 6.09533911,22.2797755 C3.50253304,22.2797755 1.20043554,24.0160388 0.50004117,26.5026359 C-0.366472373,29.573198 1.44063489,32.7721654 4.52730878,33.6330394 C5.04138028,33.7770767 5.57004334,33.8496536 6.09982882,33.8496536 C8.69375731,33.8496536 10.9947324,32.1133903 11.6951268,29.6267933 C11.79839,29.2627921 11.8634908,28.8943246 11.8937963,28.5258572 C12.0385894,28.5481885 12.1833824,28.572753 12.3281755,28.5928512 L13.6829447,28.7882507 C14.5864984,28.9177725 15.4889296,29.0528773 16.3924832,29.1645341 C17.2949144,29.2828903 18.198468,29.3978968 19.1020217,29.5006211 C20.0044529,29.606695 20.9080065,29.7194684 21.8104377,29.8121436 L23.1640845,28.875343 L25.7703597,22.6370773 L28.298065,16.5249838 L28.2879632,16.7706288 L28.1330683,21.3429749 L27.9781733,25.9153211 L27.8502167,30.4876672 C27.7716468,33.535898 27.6661387,36.5830122 27.6088949,39.631243 L34.5757985,41.0537507 L38.7848992,31.8398311 L42.9378787,22.6013471 C42.9737963,22.5198376 43.0108364,22.4394447 43.0467541,22.3579353 L43.0613456,26.6578388 L43.0849166,31.5037441 L43.1769556,41.1944382 L50.9699653,42.9184193 C51.7163792,41.2960459 52.4594258,39.6736725 53.1890033,38.0445998 L55.3912048,33.1640808 L57.5934063,28.2824453 L59.7664247,23.3885276 L61.9394431,18.4923767 C62.2436208,17.8101536 62.5444312,17.1256974 62.8452416,16.4412412 C62.9137096,18.1797376 62.9844225,19.9171175 63.0674821,21.655614 L63.2897226,26.4624394 C63.3593131,28.0647146 63.44574,29.6669897 63.529922,31.2692649 L63.7813456,36.0760903 L64.0608299,40.8817992 L65.6052893,42.3031903 C67.274338,42.0809933 68.9411419,41.838698 70.6090683,41.6042187 C72.2769946,41.3719725 73.9449209,41.1263276 75.6117248,40.879566 C77.2785287,40.6395039 78.9442102,40.3748773 80.6110141,40.1169501 L83.1095363,39.7283844 L85.6069361,39.3186039 L83.0758635,39.3007388 Z" id="Fill-20" fill="#FFFFFF" mask="url(#mask-2)"></path>
                </g>
            </g>
        </g>
        <text id="©-Copyright-Mind-Mak" font-family="Helvetica" font-size="14" font-weight="normal" fill="#FFFFFF">
            <tspan x="107.48291" y="124">© Copyright Mind Makers, Inc.</tspan>
        </text>
    </g>
</svg>