
<svg width="484px" height="234px" viewBox="688 211 484 234" version="1.1" xmlns="http://www.w3.org/2000/svg" xmlns:xlink="http://www.w3.org/1999/xlink">
    <!-- Generator: Sketch 41.2 (35397) - http://www.bohemiancoding.com/sketch -->
    <desc>Created with Sketch.</desc>
    <defs>
        <polygon id="path-1" points="0 0.9151 0 24.5801 22.7436 24.5801 22.7436 0.9151 0 0.9151"></polygon>
    </defs>
    <g id="mechanical" opacity="0.800000012" stroke="none" stroke-width="1" fill="none" fill-rule="evenodd" transform="translate(688.000000, 211.000000)">
        <path d="M165.5,82.2295 C155.982,82.2295 147.152,76.6875 143.004,68.1115 L147.055,66.1525 C150.457,73.1855 157.697,77.7295 165.5,77.7295 C173.303,77.7295 180.542,73.1855 183.943,66.1545 L187.994,68.1135 C183.847,76.6885 175.017,82.2295 165.5,82.2295" id="Fill-1" fill="#202020"></path>
        <path d="M171.5122,114.5 L159.4882,114.5 L157.0342,102.244 C154.7752,101.818 152.5372,101.218 150.3492,100.448 L142.0922,109.827 L131.6712,103.827 L135.6702,91.967 C133.9252,90.468 132.2892,88.832 130.7822,87.081 L118.9312,91.075 L112.9222,80.669 L122.3032,72.418 C121.7682,70.885 121.3052,69.284 120.9222,67.643 L125.3032,66.619 C125.7642,68.591 126.3502,70.492 127.0452,72.269 L127.6182,73.736 L118.6632,81.612 L120.9862,85.634 L132.2972,81.822 L133.2802,83.048 C135.1832,85.419 137.3432,87.577 139.7012,89.465 L140.9312,90.449 L137.1142,101.769 L141.1472,104.091 L149.0342,95.132 L150.5012,95.705 C153.3462,96.817 156.2972,97.609 159.2732,98.061 L160.8332,98.297 L163.1762,110 L167.8232,110 L170.1672,98.297 L171.7262,98.061 C174.7022,97.609 177.6542,96.817 180.4982,95.705 L181.9652,95.132 L189.8522,104.091 L193.8852,101.769 L190.0692,90.449 L191.2982,89.465 C193.6572,87.577 195.8172,85.418 197.7202,83.048 L198.7042,81.822 L210.0132,85.634 L212.3362,81.612 L203.3822,73.737 L203.9552,72.27 C204.6502,70.49 205.2352,68.59 205.6962,66.622 L210.0772,67.647 C209.6942,69.285 209.2312,70.884 208.6962,72.418 L218.0772,80.669 L212.0682,91.075 L200.2172,87.081 C198.7112,88.831 197.0742,90.467 195.3292,91.967 L199.3292,103.827 L188.9072,109.827 L180.6502,100.448 C178.4622,101.218 176.2242,101.818 173.9662,102.244 L171.5122,114.5 Z" id="Fill-3" fill="#202020"></path>
        <path d="M205.6958,47.877 C205.2358,45.907 204.6508,44.008 203.9568,42.231 L203.3838,40.765 L212.3368,32.882 L210.0138,28.859 L198.7048,32.673 L197.7198,31.448 C195.8228,29.085 193.6618,26.926 191.2958,25.028 L190.0698,24.045 L193.8868,12.722 L189.8518,10.394 L181.9628,19.361 L180.4968,18.79 C177.6398,17.677 174.6908,16.885 171.7308,16.438 L170.1708,16.202 L167.8238,4.5 L163.1758,4.5 L160.8278,16.202 L159.2688,16.438 C156.3088,16.885 153.3608,17.677 150.5038,18.79 L149.0368,19.361 L141.1478,10.394 L137.1138,12.721 L140.9298,24.045 L139.7038,25.028 C137.3388,26.925 135.1778,29.085 133.2798,31.448 L132.2958,32.673 L120.9858,28.859 L118.6628,32.882 L127.6158,40.765 L127.0428,42.231 C126.3508,44.004 125.7658,45.902 125.3048,47.876 L120.9228,46.851 C121.3068,45.21 121.7688,43.612 122.3018,42.082 L112.9228,33.823 L118.9318,23.418 L130.7828,27.414 C132.2868,25.668 133.9228,24.032 135.6708,22.529 L131.6728,10.666 L142.0918,4.653 L150.3548,14.047 C152.5468,13.277 154.7818,12.677 157.0298,12.254 L159.4888,0 L171.5118,0 L173.9688,12.254 C176.2178,12.677 178.4538,13.277 180.6448,14.047 L188.9078,4.653 L199.3278,10.665 L195.3288,22.529 C197.0768,24.033 198.7138,25.668 200.2168,27.414 L212.0678,23.418 L218.0768,33.823 L208.6978,42.082 C209.2328,43.615 209.6948,45.214 210.0778,46.854 L205.6958,47.877 Z" id="Fill-5" fill="#202020"></path>
        <path d="M183.9433,48.3438 C180.5423,41.3138 173.3023,36.7708 165.5003,36.7708 C157.6973,36.7708 150.4583,41.3138 147.0573,48.3438 L143.0063,46.3848 C147.1533,37.8108 155.9833,32.2708 165.5003,32.2708 C175.0163,32.2708 183.8463,37.8108 187.9943,46.3848 L183.9433,48.3438 Z" id="Fill-7" fill="#202020"></path>
        <polygon id="Fill-9" fill="#202020" points="99.0595 62.1934 99.0595 52.3044 90.5005 57.2524"></polygon>
        <g id="Group-13" transform="translate(86.000000, 44.500000)">
            <mask id="mask-2" fill="white">
                <use xlink:href="#path-1"></use>
            </mask>
            <g id="Clip-12"></g>
            <polygon id="Fill-11" fill="#202020" mask="url(#mask-2)" points="20.4936 24.5801 -0.0004 12.7531 20.4926 0.9151 22.7436 4.8111 8.9996 12.7511 22.7426 20.6821"></polygon>
        </g>
        <polygon id="Fill-14" fill="#202020" points="220.7353 59.502 117.5013 59.5 117.5013 55 220.7353 55.002"></polygon>
        <path d="M113.0507,64.8809 L218.4847,64.8849 L218.4857,49.6149 L113.0487,49.6129 L119.0927,55.6589 C119.9717,56.5379 119.9717,57.9629 119.0917,58.8409 L113.0507,64.8809 Z M220.7347,69.3849 L220.7347,69.3849 L107.6177,69.3809 C106.7077,69.3809 105.8877,68.8329 105.5397,67.9919 C105.1907,67.1509 105.3837,66.1839 106.0277,65.5399 L114.3197,57.2499 L106.0267,48.9539 C105.3837,48.3109 105.1917,47.3429 105.5397,46.5019 C105.8877,45.6609 106.7077,45.1129 107.6177,45.1129 L220.7357,45.1149 C221.3317,45.1149 221.9047,45.3529 222.3257,45.7739 C222.7487,46.1959 222.9857,46.7689 222.9857,47.3649 L222.9847,67.1349 C222.9847,68.3769 221.9767,69.3849 220.7347,69.3849 L220.7347,69.3849 Z" id="Fill-16" fill="#202020"></path>
        <path d="M222.9853,49.6153 L222.9843,64.8843 L228.3673,64.8823 L228.3673,49.6173 L222.9853,49.6153 Z M220.7343,69.3853 C220.1373,69.3853 219.5653,69.1473 219.1433,68.7253 C218.7213,68.3033 218.4843,67.7313 218.4843,67.1353 L218.4853,47.3653 C218.4853,46.7683 218.7223,46.1963 219.1443,45.7743 C219.5663,45.3523 220.1383,45.1153 220.7353,45.1153 L220.7363,45.1153 L230.6173,45.1173 C231.8603,45.1173 232.8673,46.1253 232.8673,47.3673 L232.8673,67.1313 C232.8673,68.3733 231.8603,69.3803 230.6183,69.3813 L220.7353,69.3853 L220.7343,69.3853 Z" id="Fill-18" fill="#202020"></path>
        <path d="M230.6328,69.3809 L230.6138,69.3809 L230.6208,64.8809 L230.6328,64.8809 C232.6638,64.8809 234.5748,64.0889 236.0148,62.6489 C237.4568,61.2059 238.2508,59.2889 238.2498,57.2529 C238.2498,55.2119 237.4558,53.2939 236.0148,51.8529 C234.5708,50.4109 232.6568,49.6169 230.6248,49.6169 L230.6188,49.6169 L230.6148,45.1169 L230.6248,45.1169 C233.8578,45.1169 236.9008,46.3789 239.1958,48.6699 C241.4878,50.9619 242.7498,54.0099 242.7498,57.2519 C242.7518,60.4889 241.4898,63.5359 239.1968,65.8299 C236.9058,68.1209 233.8648,69.3809 230.6328,69.3809" id="Fill-20" fill="#202020"></path>
        <text id="Sed-ut-perspiciatis" font-family=".AppleSystemUIFont" font-size="16" font-weight="normal" fill="#9B9B9B">
            <tspan x="41.78125" y="205">Sed ut perspiciatis unde omnis iste </tspan>
            <tspan x="72.59375" y="223">natus error sit voluptatem.</tspan>
        </text>
        <text id="MECHANICAL" font-family=".SFNSDisplay, .SF NS Display" font-size="22" font-weight="normal" fill="#323638">
            <tspan x="93.9842659" y="172">MECHANICAL</tspan>
        </text>
    </g>
</svg>