
<svg width="144px" height="118px" viewBox="93 0 144 118" version="1.1" xmlns="http://www.w3.org/2000/svg" xmlns:xlink="http://www.w3.org/1999/xlink">
    <!-- Generator: Sketch 41.2 (35397) - http://www.bohemiancoding.com/sketch -->
    <desc>Created with Sketch.</desc>
    <defs>
        <polygon id="path-1" points="114.9489 96.1125198 114.9489 0.72330283 0.03762 0.72330283 0.03762 96.1125198"></polygon>
        <polygon id="path-3" points="0 116.277028 142.4489 116.277028 142.4489 1.10377358 0 1.10377358"></polygon>
    </defs>
    <g id="share-icon" opacity="0.800000012" stroke="none" stroke-width="1" fill="none" fill-rule="evenodd" transform="translate(93.326407, 0.310447)">
        <path d="M14.60074,116.277028 C14.16844,116.277028 13.73284,116.193142 13.31704,116.020953 C12.05094,115.495557 11.23474,114.271472 11.23474,112.900585 L11.23474,103.260226 C8.24934,103.227113 5.44544,102.043868 3.32904,99.9235189 C1.18184,97.7689528 0.00044,94.9046604 0.00044,91.8571415 L0.00044,49.6278679 C0.00044,46.5825566 1.18184,43.7182642 3.32794,41.5636981 C5.47624,39.4091321 8.32964,38.2225755 11.36564,38.2225755 L30.01284,38.2225755 L30.01284,43.1895566 L11.36564,43.1895566 C9.65184,43.1895566 8.04144,43.8595472 6.82924,45.0759057 C5.61704,46.2911604 4.95044,47.9092925 4.95044,49.6278679 L4.95044,91.8571415 C4.95044,93.5779245 5.61704,95.1949528 6.82924,96.4102075 C8.04034,97.6254623 9.65184,98.2943491 11.36564,98.2943491 L16.18474,98.2943491 L16.18474,109.058349 L26.91084,98.2943491 L82.46194,98.2943491 C84.17684,98.2943491 85.78834,97.6254623 86.99944,96.4091038 C88.21274,95.1949528 88.87934,93.5779245 88.87934,91.8571415 L88.87934,77.9087547 L93.82934,77.9087547 L93.82934,91.8571415 C93.82934,94.9046604 92.64684,97.7689528 90.49964,99.9235189 C88.35244,102.075877 85.49794,103.26133 82.46194,103.26133 L28.96124,103.26133 L16.97894,115.288047 C16.33104,115.933755 15.47304,116.277028 14.60074,116.277028 Z" id="Fill-1" fill="#191818"></path>
        <g id="Group-5" transform="translate(27.500000, 0.380802)">
            <mask id="mask-2" fill="white">
                <use xlink:href="#path-1"></use>
            </mask>
            <g id="Clip-4"></g>
            <path d="M13.51262,5.69028396 C11.23562,5.69028396 9.09392,6.57992547 7.48462,8.19585 C5.87422,9.81067075 4.98762,11.9597179 4.98762,14.2445292 L4.98762,66.4905481 C4.98762,68.7753594 5.87422,70.9244066 7.48462,72.5403311 C9.09392,74.1551519 11.23562,75.0447934 13.51262,75.0447934 L81.99862,75.0447934 L96.09842,89.194067 L96.09842,75.0447934 L101.47412,75.0447934 C103.75002,75.0447934 105.89062,74.1551519 107.50212,72.5392274 C109.11142,70.9233028 109.99912,68.7753594 109.99912,66.4905481 L109.99912,14.2445292 C109.99912,11.9597179 109.11142,9.81177453 107.50102,8.19585 C105.89062,6.57992547 103.75002,5.69028396 101.47412,5.69028396 L13.51262,5.69028396 Z M97.47452,96.1125198 C96.53292,96.1125198 95.61112,95.7295104 94.94562,95.0617274 L79.94822,80.0117745 L13.51262,80.0117745 C9.91342,80.0117745 6.52872,78.605567 3.98442,76.0514349 C1.43902,73.4984066 0.03762,70.1031991 0.03762,66.4905481 L0.03762,14.2445292 C0.03762,10.6329821 1.43902,7.23667075 3.98442,4.68364245 C6.52872,2.12951038 9.91342,0.72330283 13.51262,0.72330283 L101.47412,0.72330283 C105.07222,0.72330283 108.45692,2.12951038 111.00232,4.68253868 C113.54662,7.2388783 114.94912,10.6340858 114.94912,14.2445292 L114.94912,66.4905481 C114.94912,70.1009915 113.54662,73.4961991 111.00342,76.0514349 C108.45692,78.605567 105.07222,80.0117745 101.47412,80.0117745 L101.04842,80.0117745 L101.04842,92.5252557 C101.04842,93.981133 100.18162,95.2824821 98.84072,95.8398877 C98.40512,96.0209066 97.94532,96.1125198 97.47452,96.1125198 L97.47452,96.1125198 Z" id="Fill-3" fill="#191818" mask="url(#mask-2)"></path>
        </g>
        <mask id="mask-4" fill="white">
            <use xlink:href="#path-3"></use>
        </mask>
        <g id="Clip-7"></g>
        <polygon id="Fill-6" fill="#191818" mask="url(#mask-4)" points="72.6187 43.2315 77.5687 43.2315 77.5687 38.2645189 72.6187 38.2645189"></polygon>
        <polygon id="Fill-8" fill="#191818" mask="url(#mask-4)" points="82.5187 43.2315 87.4687 43.2315 87.4687 38.2645189 82.5187 38.2645189"></polygon>
        <polygon id="Fill-9" fill="#191818" mask="url(#mask-4)" points="92.4187 43.2315 97.3687 43.2315 97.3687 38.2645189 92.4187 38.2645189"></polygon>
        <path d="M45.6874,62.1799811 L124.2989,62.1799811 L124.2989,19.3160377 L45.6874,19.3160377 L45.6874,62.1799811 Z M40.7374,67.1469623 L129.2489,67.1469623 L129.2489,14.3490566 L40.7374,14.3490566 L40.7374,67.1469623 Z" id="Fill-10" fill="#191818" mask="url(#mask-4)"></path>
    </g>
</svg>